<svg width="30" height="30" viewBox="0 0 30 30" fill="none" xmlns="http://www.w3.org/2000/svg">
<g clip-path="url(#clip0_346_555)">
<path fill-rule="evenodd" clip-rule="evenodd" d="M25.6281 4.35966C22.8082 1.5498 19.058 0.00157932 15.0625 0C6.82985 0 0.129508 6.6683 0.126213 14.8647C0.125115 17.4848 0.812919 20.0423 2.11991 22.2966L0.000976562 30L7.9189 27.9328C10.1004 29.1171 12.5567 29.7412 15.0565 29.7422H15.0626C23.2944 29.7422 29.9953 23.0731 29.9987 14.8766C30.0003 10.9045 28.4481 7.16952 25.6281 4.35966ZM15.0626 27.2315H15.0575C12.83 27.2306 10.6451 26.635 8.73906 25.5093L8.2857 25.2415L3.58716 26.4682L4.84131 21.9087L4.5461 21.4413C3.30341 19.474 2.64705 17.2002 2.64803 14.8657C2.65075 8.05313 8.21985 2.51072 15.0676 2.51072C18.3834 2.51197 21.5004 3.79888 23.8442 6.13433C26.1881 8.46979 27.4782 11.5742 27.4769 14.8756C27.4741 21.6887 21.905 27.2315 15.0626 27.2315ZM21.8721 17.9777C21.4989 17.7918 19.6641 16.8932 19.322 16.7692C18.9799 16.6453 18.7311 16.5833 18.4823 16.9552C18.2335 17.327 17.5183 18.1637 17.3005 18.4115C17.0829 18.6595 16.8652 18.6905 16.492 18.5045C16.1188 18.3186 14.9163 17.9264 13.4908 16.6609C12.3814 15.6761 11.6323 14.4596 11.4146 14.0878C11.1969 13.7159 11.3915 13.5148 11.5783 13.3297C11.7462 13.1632 11.9515 12.8959 12.1381 12.6789C12.3247 12.462 12.3869 12.3071 12.5112 12.0592C12.6357 11.8113 12.5735 11.5944 12.4802 11.4085C12.3869 11.2225 11.6405 9.39426 11.3295 8.65056C11.0266 7.92626 10.7189 8.02425 10.4898 8.01292C10.2724 8.00214 10.0233 7.99984 9.77455 7.99984C9.52575 7.99984 9.12144 8.09281 8.77933 8.46464C8.43726 8.83651 7.47319 9.73515 7.47319 11.5634C7.47319 13.3916 8.81045 15.1579 8.99706 15.4058C9.18363 15.6537 11.6287 19.4056 15.3724 21.0145C16.2628 21.3972 16.958 21.6257 17.5 21.797C18.394 22.0796 19.2076 22.0397 19.8507 21.9441C20.5677 21.8375 22.0587 21.0455 22.3697 20.1779C22.6807 19.3102 22.6807 18.5665 22.5874 18.4116C22.4941 18.2566 22.2453 18.1637 21.8721 17.9777Z" fill="black"/>
</g>
<defs>
<clipPath id="clip0_346_555">
<rect width="30" height="30" fill="white"/>
</clipPath>
</defs>
</svg>
