<svg width="30" height="30" viewBox="0 0 30 30" fill="none" xmlns="http://www.w3.org/2000/svg">
<g clip-path="url(#clip0_34_36)">
<path fill-rule="evenodd" clip-rule="evenodd" d="M25.6284 4.35966C22.8085 1.5498 19.0582 0.00157932 15.0627 0C6.83009 0 0.129752 6.6683 0.126457 14.8647C0.125359 17.4848 0.813164 20.0423 2.12015 22.2966L0.0012207 30L7.91915 27.9328C10.1007 29.1171 12.5569 29.7412 15.0567 29.7422H15.0629C23.2946 29.7422 29.9956 23.0731 29.9989 14.8766C30.0005 10.9045 28.4484 7.16952 25.6284 4.35966ZM15.0629 27.2315H15.0578C12.8302 27.2306 10.6453 26.635 8.73931 25.5093L8.28595 25.2415L3.5874 26.4682L4.84156 21.9087L4.54634 21.4413C3.30366 19.474 2.6473 17.2002 2.64827 14.8657C2.651 8.05313 8.2201 2.51072 15.0678 2.51072C18.3836 2.51197 21.5006 3.79888 23.8445 6.13433C26.1883 8.46979 27.4784 11.5742 27.4772 14.8756C27.4743 21.6887 21.9053 27.2315 15.0629 27.2315ZM21.8724 17.9777C21.4992 17.7918 19.6643 16.8932 19.3222 16.7692C18.9801 16.6453 18.7314 16.5833 18.4825 16.9552C18.2338 17.327 17.5186 18.1637 17.3008 18.4115C17.0831 18.6595 16.8654 18.6905 16.4922 18.5045C16.119 18.3186 14.9165 17.9264 13.491 16.6609C12.3816 15.6761 11.6326 14.4596 11.4149 14.0878C11.1972 13.7159 11.3917 13.5148 11.5785 13.3297C11.7464 13.1632 11.9517 12.8959 12.1383 12.6789C12.3249 12.462 12.3871 12.3071 12.5115 12.0592C12.6359 11.8113 12.5737 11.5944 12.4804 11.4085C12.3871 11.2225 11.6408 9.39426 11.3297 8.65056C11.0268 7.92626 10.7191 8.02425 10.4901 8.01292C10.2726 8.00214 10.0236 7.99984 9.7748 7.99984C9.52599 7.99984 9.12169 8.09281 8.77957 8.46464C8.4375 8.83651 7.47344 9.73515 7.47344 11.5634C7.47344 13.3916 8.81069 15.1579 8.9973 15.4058C9.18388 15.6537 11.6289 19.4056 15.3727 21.0145C16.2631 21.3972 16.9582 21.6257 17.5002 21.797C18.3943 22.0796 19.2078 22.0397 19.8509 21.9441C20.5679 21.8375 22.0589 21.0455 22.37 20.1779C22.681 19.3102 22.6809 18.5665 22.5876 18.4116C22.4944 18.2566 22.2456 18.1637 21.8724 17.9777Z" fill="white"/>
</g>
<defs>
<clipPath id="clip0_34_36">
<rect width="30" height="30" fill="white"/>
</clipPath>
</defs>
</svg>
